#N canvas 988 72 741 737 10;
#X obj 17 14 tgl 15 0 empty empty empty 17 7 0 10 -262144 -1 -1 0 1
;
#X obj 17 49 s onOff;
#X obj 98 9 r a_input_0;
#X obj 179 9 r a_input_1;
#X obj 259 9 r a_input_2;
#X obj 283 441 r a_input_3;
#X msg 401 287 show;
#X msg 456 288 hide;
#X text 459 256 Pixel no \, R \, G \, B;
#X text 83 275 waveform no \, duration;
#X obj 474 12 r d_input_6;
#X obj 579 11 r d_input_9;
#X msg 29 276 V1 100;
#X msg 377 256 N1 100 245 10;
#X obj 297 630 s ble;
#X obj 196 403 r onOff;
#X msg 80 153 0;
#X msg 128 153 255;
#X obj 80 207 s d_output_2;
#X msg 178 153 0;
#X msg 226 153 255;
#X obj 178 207 s d_output_3;
#X obj 378 335 s neopixel;
#X obj 29 317 s vibrate;
#X obj 248 630 print;
#X floatatom 283 482 5 0 0 0 - - -, f 5;
#X obj 248 556 / 4;
#X msg 248 594 D 13 \$1;
#X obj 196 458 t b;
#X obj 196 480 metro 120;
#X obj 247 526 float;
#X connect 0 0 1 0;
#X connect 5 0 25 0;
#X connect 6 0 22 0;
#X connect 7 0 22 0;
#X connect 12 0 23 0;
#X connect 13 0 22 0;
#X connect 15 0 28 0;
#X connect 16 0 18 0;
#X connect 17 0 18 0;
#X connect 19 0 21 0;
#X connect 20 0 21 0;
#X connect 25 0 30 0;
#X connect 26 0 27 0;
#X connect 27 0 24 0;
#X connect 27 0 14 0;
#X connect 28 0 29 0;
#X connect 29 0 30 0;
#X connect 30 0 26 0;
